<?xml version="1.0" encoding="iso-8859-1"?>
<!-- Generator: Adobe Illustrator 16.0.0, SVG Export Plug-In . SVG Version: 6.00 Build 0)  -->
<!DOCTYPE svg PUBLIC "-//W3C//DTD SVG 1.1//EN" "http://www.w3.org/Graphics/SVG/1.1/DTD/svg11.dtd">
<svg version="1.1" id="Capa_1" xmlns="http://www.w3.org/2000/svg" xmlns:xlink="http://www.w3.org/1999/xlink" x="0px" y="0px"
	 width="31.248px" height="31.248px" viewBox="0 0 31.248 31.248" style="enable-background:new 0 0 31.248 31.248;"
	 xml:space="preserve">
<g>
	<g>
		<path d="M31.248,16.687c0,2.664-0.759,5.295-2.191,7.604c-0.271,0.441-0.754,0.709-1.273,0.709h-2.159v1.375
			c0,1.727-1.397,3.125-3.125,3.125s-3.125-1.398-3.125-3.125v-5.25c0-1.727,1.397-3.125,3.125-3.125s3.125,1.398,3.125,3.125v0.875
			h1.292c0.875-1.652,1.333-3.475,1.333-5.311c0-6.583-5.664-11.938-12.625-11.938S2.999,10.104,2.999,16.688
			c0,1.838,0.459,3.658,1.333,5.311h1.292v-0.875c0-1.727,1.398-3.125,3.125-3.125s3.125,1.398,3.125,3.125v5.25
			c0,1.727-1.398,3.125-3.125,3.125s-3.125-1.398-3.125-3.125v-1.375H3.465c-0.519,0-1.001-0.268-1.274-0.709
			C0.757,21.981,0,19.353,0,16.687C0,8.452,7.009,1.749,15.625,1.749S31.248,8.451,31.248,16.687z"/>
	</g>
</g>
<g>
</g>
<g>
</g>
<g>
</g>
<g>
</g>
<g>
</g>
<g>
</g>
<g>
</g>
<g>
</g>
<g>
</g>
<g>
</g>
<g>
</g>
<g>
</g>
<g>
</g>
<g>
</g>
<g>
</g>
</svg>
